%TF.GenerationSoftware,KiCad,Pcbnew,8.0.2*%
%TF.CreationDate,2024-11-11T15:44:18-05:00*%
%TF.ProjectId,PTZ_Camera_Head,50545a5f-4361-46d6-9572-615f48656164,rev?*%
%TF.SameCoordinates,Original*%
%TF.FileFunction,Plated,1,2,PTH,Mixed*%
%TF.FilePolarity,Positive*%
%FSLAX46Y46*%
G04 Gerber Fmt 4.6, Leading zero omitted, Abs format (unit mm)*
G04 Created by KiCad (PCBNEW 8.0.2) date 2024-11-11 15:44:18*
%MOMM*%
%LPD*%
G01*
G04 APERTURE LIST*
%TA.AperFunction,ViaDrill*%
%ADD10C,0.300000*%
%TD*%
%TA.AperFunction,ComponentDrill*%
%ADD11C,0.800000*%
%TD*%
G04 aperture for slot hole*
%TA.AperFunction,ComponentDrill*%
%ADD12C,0.800000*%
%TD*%
%TA.AperFunction,ComponentDrill*%
%ADD13C,1.000000*%
%TD*%
%TA.AperFunction,ComponentDrill*%
%ADD14C,1.040000*%
%TD*%
G04 APERTURE END LIST*
D10*
X140259100Y-82711400D03*
X140553200Y-96337500D03*
X140811400Y-94427100D03*
X141829300Y-81049400D03*
X146609000Y-57370000D03*
X155585400Y-51254200D03*
X162631800Y-89233700D03*
X163307400Y-90502000D03*
X166757100Y-57370000D03*
D11*
%TO.C,C3*%
X139944900Y-113810000D03*
X142444900Y-113810000D03*
%TO.C,C1*%
X157350000Y-113810000D03*
X159850000Y-113810000D03*
%TO.C,C2*%
X178444900Y-113810000D03*
X180944900Y-113810000D03*
D12*
%TO.C,PowerJack1*%
X183300000Y-58950000D02*
X183300000Y-56750000D01*
X187000000Y-55050000D02*
X189200000Y-55050000D01*
X186800000Y-60850000D02*
X189400000Y-60850000D01*
D13*
%TO.C,StepperMotorDriver1*%
X134800000Y-104920000D03*
X134800000Y-107460000D03*
X134800000Y-110000000D03*
X134800000Y-112540000D03*
X134800000Y-115080000D03*
X134800000Y-117620000D03*
X134800000Y-120160000D03*
X134800000Y-122700000D03*
X147500000Y-104920000D03*
X147500000Y-107460000D03*
X147500000Y-110000000D03*
X147500000Y-112540000D03*
X147500000Y-115080000D03*
X147500000Y-117620000D03*
X147500000Y-120160000D03*
X147500000Y-122700000D03*
%TO.C,StepperMotorDriver2*%
X153500000Y-104920000D03*
X153500000Y-107460000D03*
X153500000Y-110000000D03*
X153500000Y-112540000D03*
X153500000Y-115080000D03*
X153500000Y-117620000D03*
X153500000Y-120160000D03*
X153500000Y-122700000D03*
%TO.C,Motor1*%
X158420000Y-98000000D03*
%TO.C,Servo1*%
X158500000Y-86500000D03*
%TO.C,HallRotate1*%
X158525000Y-92500000D03*
%TO.C,EthernetSheild1*%
X158640000Y-56875000D03*
X158640000Y-59475000D03*
X158640000Y-62075000D03*
X158640000Y-64675000D03*
X158640000Y-67275000D03*
X158640000Y-69875000D03*
%TO.C,Motor1*%
X160960000Y-98000000D03*
%TO.C,Servo1*%
X161040000Y-86500000D03*
%TO.C,HallRotate1*%
X161065000Y-92500000D03*
%TO.C,Motor1*%
X163500000Y-98000000D03*
%TO.C,Servo1*%
X163580000Y-86500000D03*
%TO.C,HallRotate1*%
X163605000Y-92500000D03*
%TO.C,Motor1*%
X166040000Y-98000000D03*
%TO.C,StepperMotorDriver2*%
X166200000Y-104920000D03*
X166200000Y-107460000D03*
X166200000Y-110000000D03*
X166200000Y-112540000D03*
X166200000Y-115080000D03*
X166200000Y-117620000D03*
X166200000Y-120160000D03*
X166200000Y-122700000D03*
%TO.C,Motor2*%
X171460000Y-98000000D03*
%TO.C,Servo2*%
X171500000Y-86500000D03*
%TO.C,HallPan1*%
X171500000Y-92500000D03*
%TO.C,StepperMotorDriver3*%
X173300000Y-104920000D03*
X173300000Y-107460000D03*
X173300000Y-110000000D03*
X173300000Y-112540000D03*
X173300000Y-115080000D03*
X173300000Y-117620000D03*
X173300000Y-120160000D03*
X173300000Y-122700000D03*
%TO.C,Motor2*%
X174000000Y-98000000D03*
%TO.C,Servo2*%
X174040000Y-86500000D03*
%TO.C,HallPan1*%
X174040000Y-92500000D03*
%TO.C,Motor2*%
X176540000Y-98000000D03*
%TO.C,Servo2*%
X176580000Y-86500000D03*
%TO.C,HallPan1*%
X176580000Y-92500000D03*
%TO.C,EthernetSheild1*%
X178960000Y-56875000D03*
X178960000Y-59415000D03*
X178960000Y-61955000D03*
X178960000Y-64495000D03*
X178960000Y-67035000D03*
X178960000Y-69575000D03*
%TO.C,Motor2*%
X179080000Y-98000000D03*
%TO.C,Motor3*%
X183920000Y-98000000D03*
%TO.C,LancAdapter1*%
X184500000Y-92500000D03*
%TO.C,StepperMotorDriver3*%
X186000000Y-104920000D03*
X186000000Y-107460000D03*
X186000000Y-110000000D03*
X186000000Y-112540000D03*
X186000000Y-115080000D03*
X186000000Y-117620000D03*
X186000000Y-120160000D03*
X186000000Y-122700000D03*
%TO.C,Motor3*%
X186460000Y-98000000D03*
%TO.C,LancAdapter1*%
X187040000Y-92500000D03*
%TO.C,Motor3*%
X189000000Y-98000000D03*
%TO.C,LancAdapter1*%
X189580000Y-92500000D03*
%TO.C,Motor3*%
X191540000Y-98000000D03*
D14*
%TO.C,ESP1*%
X130640000Y-52280000D03*
X130640000Y-54820000D03*
X130640000Y-57360000D03*
X130640000Y-59900000D03*
X130640000Y-62440000D03*
X130640000Y-64980000D03*
X130640000Y-67520000D03*
X130640000Y-70060000D03*
X130640000Y-72600000D03*
X130640000Y-75140000D03*
X130640000Y-77680000D03*
X130640000Y-80220000D03*
X130640000Y-82760000D03*
X130640000Y-85300000D03*
X130640000Y-87840000D03*
X130640000Y-90380000D03*
X130640000Y-92920000D03*
X130640000Y-95460000D03*
X130640000Y-98000000D03*
X153500000Y-52280000D03*
X153500000Y-54820000D03*
X153500000Y-57360000D03*
X153500000Y-59900000D03*
X153500000Y-62440000D03*
X153500000Y-64980000D03*
X153500000Y-67520000D03*
X153500000Y-70060000D03*
X153500000Y-72600000D03*
X153500000Y-75140000D03*
X153500000Y-77680000D03*
X153500000Y-80220000D03*
X153500000Y-82760000D03*
X153500000Y-85300000D03*
X153500000Y-87840000D03*
X153500000Y-90380000D03*
X153500000Y-92920000D03*
X153500000Y-95460000D03*
X153500000Y-98000000D03*
M02*
