%TF.GenerationSoftware,KiCad,Pcbnew,8.0.2*%
%TF.CreationDate,2024-11-11T15:44:15-05:00*%
%TF.ProjectId,PTZ_Camera_Head,50545a5f-4361-46d6-9572-615f48656164,rev?*%
%TF.SameCoordinates,Original*%
%TF.FileFunction,Drillmap*%
%TF.FilePolarity,Positive*%
%FSLAX45Y45*%
G04 Gerber Fmt 4.5, Leading zero omitted, Abs format (unit mm)*
G04 Created by KiCad (PCBNEW 8.0.2) date 2024-11-11 15:44:15*
%MOMM*%
%LPD*%
G01*
G04 APERTURE LIST*
%ADD10C,0.200000*%
G04 APERTURE END LIST*
D10*
X13180000Y-10500000D02*
G75*
G02*
X12920000Y-10500000I-130000J0D01*
G01*
X12920000Y-10500000D02*
G75*
G02*
X13180000Y-10500000I130000J0D01*
G01*
X19280000Y-6550000D02*
G75*
G02*
X19020000Y-6550000I-130000J0D01*
G01*
X19020000Y-6550000D02*
G75*
G02*
X19280000Y-6550000I130000J0D01*
G01*
X12800000Y-5000000D02*
X19400000Y-5000000D01*
X19400000Y-12450000D01*
X12800000Y-12450000D01*
X12800000Y-5000000D01*
X13180000Y-12200000D02*
G75*
G02*
X12920000Y-12200000I-130000J0D01*
G01*
X12920000Y-12200000D02*
G75*
G02*
X13180000Y-12200000I130000J0D01*
G01*
X17830000Y-7900000D02*
G75*
G02*
X17570000Y-7900000I-130000J0D01*
G01*
X17570000Y-7900000D02*
G75*
G02*
X17830000Y-7900000I130000J0D01*
G01*
X16080000Y-7900000D02*
G75*
G02*
X15820000Y-7900000I-130000J0D01*
G01*
X15820000Y-7900000D02*
G75*
G02*
X16080000Y-7900000I130000J0D01*
G01*
X19280000Y-12200000D02*
G75*
G02*
X19020000Y-12200000I-130000J0D01*
G01*
X19020000Y-12200000D02*
G75*
G02*
X19280000Y-12200000I130000J0D01*
G01*
X13050777Y-12771484D02*
X13050777Y-12571484D01*
X13050777Y-12571484D02*
X13098396Y-12571484D01*
X13098396Y-12571484D02*
X13126967Y-12581008D01*
X13126967Y-12581008D02*
X13146015Y-12600055D01*
X13146015Y-12600055D02*
X13155539Y-12619103D01*
X13155539Y-12619103D02*
X13165062Y-12657198D01*
X13165062Y-12657198D02*
X13165062Y-12685769D01*
X13165062Y-12685769D02*
X13155539Y-12723865D01*
X13155539Y-12723865D02*
X13146015Y-12742912D01*
X13146015Y-12742912D02*
X13126967Y-12761960D01*
X13126967Y-12761960D02*
X13098396Y-12771484D01*
X13098396Y-12771484D02*
X13050777Y-12771484D01*
X13250777Y-12771484D02*
X13250777Y-12638150D01*
X13250777Y-12676246D02*
X13260301Y-12657198D01*
X13260301Y-12657198D02*
X13269824Y-12647674D01*
X13269824Y-12647674D02*
X13288872Y-12638150D01*
X13288872Y-12638150D02*
X13307920Y-12638150D01*
X13374586Y-12771484D02*
X13374586Y-12638150D01*
X13374586Y-12571484D02*
X13365062Y-12581008D01*
X13365062Y-12581008D02*
X13374586Y-12590531D01*
X13374586Y-12590531D02*
X13384110Y-12581008D01*
X13384110Y-12581008D02*
X13374586Y-12571484D01*
X13374586Y-12571484D02*
X13374586Y-12590531D01*
X13498396Y-12771484D02*
X13479348Y-12761960D01*
X13479348Y-12761960D02*
X13469824Y-12742912D01*
X13469824Y-12742912D02*
X13469824Y-12571484D01*
X13603158Y-12771484D02*
X13584110Y-12761960D01*
X13584110Y-12761960D02*
X13574586Y-12742912D01*
X13574586Y-12742912D02*
X13574586Y-12571484D01*
X13831729Y-12771484D02*
X13831729Y-12571484D01*
X13831729Y-12571484D02*
X13898396Y-12714341D01*
X13898396Y-12714341D02*
X13965062Y-12571484D01*
X13965062Y-12571484D02*
X13965062Y-12771484D01*
X14146015Y-12771484D02*
X14146015Y-12666722D01*
X14146015Y-12666722D02*
X14136491Y-12647674D01*
X14136491Y-12647674D02*
X14117443Y-12638150D01*
X14117443Y-12638150D02*
X14079348Y-12638150D01*
X14079348Y-12638150D02*
X14060301Y-12647674D01*
X14146015Y-12761960D02*
X14126967Y-12771484D01*
X14126967Y-12771484D02*
X14079348Y-12771484D01*
X14079348Y-12771484D02*
X14060301Y-12761960D01*
X14060301Y-12761960D02*
X14050777Y-12742912D01*
X14050777Y-12742912D02*
X14050777Y-12723865D01*
X14050777Y-12723865D02*
X14060301Y-12704817D01*
X14060301Y-12704817D02*
X14079348Y-12695293D01*
X14079348Y-12695293D02*
X14126967Y-12695293D01*
X14126967Y-12695293D02*
X14146015Y-12685769D01*
X14241253Y-12638150D02*
X14241253Y-12838150D01*
X14241253Y-12647674D02*
X14260301Y-12638150D01*
X14260301Y-12638150D02*
X14298396Y-12638150D01*
X14298396Y-12638150D02*
X14317443Y-12647674D01*
X14317443Y-12647674D02*
X14326967Y-12657198D01*
X14326967Y-12657198D02*
X14336491Y-12676246D01*
X14336491Y-12676246D02*
X14336491Y-12733388D01*
X14336491Y-12733388D02*
X14326967Y-12752436D01*
X14326967Y-12752436D02*
X14317443Y-12761960D01*
X14317443Y-12761960D02*
X14298396Y-12771484D01*
X14298396Y-12771484D02*
X14260301Y-12771484D01*
X14260301Y-12771484D02*
X14241253Y-12761960D01*
X14422205Y-12752436D02*
X14431729Y-12761960D01*
X14431729Y-12761960D02*
X14422205Y-12771484D01*
X14422205Y-12771484D02*
X14412682Y-12761960D01*
X14412682Y-12761960D02*
X14422205Y-12752436D01*
X14422205Y-12752436D02*
X14422205Y-12771484D01*
X14422205Y-12647674D02*
X14431729Y-12657198D01*
X14431729Y-12657198D02*
X14422205Y-12666722D01*
X14422205Y-12666722D02*
X14412682Y-12657198D01*
X14412682Y-12657198D02*
X14422205Y-12647674D01*
X14422205Y-12647674D02*
X14422205Y-12666722D01*
M02*
