%TF.GenerationSoftware,KiCad,Pcbnew,8.0.2*%
%TF.CreationDate,2024-11-11T15:41:08-05:00*%
%TF.ProjectId,PTZ_Camera_Controler,50545a5f-4361-46d6-9572-615f436f6e74,rev?*%
%TF.SameCoordinates,Original*%
%TF.FileFunction,Drillmap*%
%TF.FilePolarity,Positive*%
%FSLAX45Y45*%
G04 Gerber Fmt 4.5, Leading zero omitted, Abs format (unit mm)*
G04 Created by KiCad (PCBNEW 8.0.2) date 2024-11-11 15:41:08*
%MOMM*%
%LPD*%
G01*
G04 APERTURE LIST*
%ADD10C,0.050000*%
%ADD11C,0.200000*%
G04 APERTURE END LIST*
D10*
X16980000Y-5225000D02*
G75*
G02*
X16720000Y-5225000I-130000J0D01*
G01*
X16720000Y-5225000D02*
G75*
G02*
X16980000Y-5225000I130000J0D01*
G01*
X16980000Y-7375000D02*
G75*
G02*
X16720000Y-7375000I-130000J0D01*
G01*
X16720000Y-7375000D02*
G75*
G02*
X16980000Y-7375000I130000J0D01*
G01*
X19830000Y-7375000D02*
G75*
G02*
X19570000Y-7375000I-130000J0D01*
G01*
X19570000Y-7375000D02*
G75*
G02*
X19830000Y-7375000I130000J0D01*
G01*
X19830000Y-9625000D02*
G75*
G02*
X19570000Y-9625000I-130000J0D01*
G01*
X19570000Y-9625000D02*
G75*
G02*
X19830000Y-9625000I130000J0D01*
G01*
X10630000Y-11875000D02*
G75*
G02*
X10370000Y-11875000I-130000J0D01*
G01*
X10370000Y-11875000D02*
G75*
G02*
X10630000Y-11875000I130000J0D01*
G01*
X19830000Y-11875000D02*
G75*
G02*
X19570000Y-11875000I-130000J0D01*
G01*
X19570000Y-11875000D02*
G75*
G02*
X19830000Y-11875000I130000J0D01*
G01*
X13480000Y-5225000D02*
G75*
G02*
X13220000Y-5225000I-130000J0D01*
G01*
X13220000Y-5225000D02*
G75*
G02*
X13480000Y-5225000I130000J0D01*
G01*
X10630000Y-7375000D02*
G75*
G02*
X10370000Y-7375000I-130000J0D01*
G01*
X10370000Y-7375000D02*
G75*
G02*
X10630000Y-7375000I130000J0D01*
G01*
X10150000Y-4925000D02*
X20050000Y-4925000D01*
X20050000Y-14825000D01*
X10150000Y-14825000D01*
X10150000Y-4925000D01*
X13480000Y-14575000D02*
G75*
G02*
X13220000Y-14575000I-130000J0D01*
G01*
X13220000Y-14575000D02*
G75*
G02*
X13480000Y-14575000I130000J0D01*
G01*
X13480000Y-7375000D02*
G75*
G02*
X13220000Y-7375000I-130000J0D01*
G01*
X13220000Y-7375000D02*
G75*
G02*
X13480000Y-7375000I130000J0D01*
G01*
X16980000Y-14575000D02*
G75*
G02*
X16720000Y-14575000I-130000J0D01*
G01*
X16720000Y-14575000D02*
G75*
G02*
X16980000Y-14575000I130000J0D01*
G01*
X10630000Y-9625000D02*
G75*
G02*
X10370000Y-9625000I-130000J0D01*
G01*
X10370000Y-9625000D02*
G75*
G02*
X10630000Y-9625000I130000J0D01*
G01*
D11*
X10408277Y-15138984D02*
X10408277Y-14938984D01*
X10408277Y-14938984D02*
X10455896Y-14938984D01*
X10455896Y-14938984D02*
X10484467Y-14948508D01*
X10484467Y-14948508D02*
X10503515Y-14967555D01*
X10503515Y-14967555D02*
X10513039Y-14986603D01*
X10513039Y-14986603D02*
X10522563Y-15024698D01*
X10522563Y-15024698D02*
X10522563Y-15053269D01*
X10522563Y-15053269D02*
X10513039Y-15091365D01*
X10513039Y-15091365D02*
X10503515Y-15110412D01*
X10503515Y-15110412D02*
X10484467Y-15129460D01*
X10484467Y-15129460D02*
X10455896Y-15138984D01*
X10455896Y-15138984D02*
X10408277Y-15138984D01*
X10608277Y-15138984D02*
X10608277Y-15005650D01*
X10608277Y-15043746D02*
X10617801Y-15024698D01*
X10617801Y-15024698D02*
X10627324Y-15015174D01*
X10627324Y-15015174D02*
X10646372Y-15005650D01*
X10646372Y-15005650D02*
X10665420Y-15005650D01*
X10732086Y-15138984D02*
X10732086Y-15005650D01*
X10732086Y-14938984D02*
X10722563Y-14948508D01*
X10722563Y-14948508D02*
X10732086Y-14958031D01*
X10732086Y-14958031D02*
X10741610Y-14948508D01*
X10741610Y-14948508D02*
X10732086Y-14938984D01*
X10732086Y-14938984D02*
X10732086Y-14958031D01*
X10855896Y-15138984D02*
X10836848Y-15129460D01*
X10836848Y-15129460D02*
X10827324Y-15110412D01*
X10827324Y-15110412D02*
X10827324Y-14938984D01*
X10960658Y-15138984D02*
X10941610Y-15129460D01*
X10941610Y-15129460D02*
X10932086Y-15110412D01*
X10932086Y-15110412D02*
X10932086Y-14938984D01*
X11189229Y-15138984D02*
X11189229Y-14938984D01*
X11189229Y-14938984D02*
X11255896Y-15081841D01*
X11255896Y-15081841D02*
X11322562Y-14938984D01*
X11322562Y-14938984D02*
X11322562Y-15138984D01*
X11503515Y-15138984D02*
X11503515Y-15034222D01*
X11503515Y-15034222D02*
X11493991Y-15015174D01*
X11493991Y-15015174D02*
X11474943Y-15005650D01*
X11474943Y-15005650D02*
X11436848Y-15005650D01*
X11436848Y-15005650D02*
X11417801Y-15015174D01*
X11503515Y-15129460D02*
X11484467Y-15138984D01*
X11484467Y-15138984D02*
X11436848Y-15138984D01*
X11436848Y-15138984D02*
X11417801Y-15129460D01*
X11417801Y-15129460D02*
X11408277Y-15110412D01*
X11408277Y-15110412D02*
X11408277Y-15091365D01*
X11408277Y-15091365D02*
X11417801Y-15072317D01*
X11417801Y-15072317D02*
X11436848Y-15062793D01*
X11436848Y-15062793D02*
X11484467Y-15062793D01*
X11484467Y-15062793D02*
X11503515Y-15053269D01*
X11598753Y-15005650D02*
X11598753Y-15205650D01*
X11598753Y-15015174D02*
X11617801Y-15005650D01*
X11617801Y-15005650D02*
X11655896Y-15005650D01*
X11655896Y-15005650D02*
X11674943Y-15015174D01*
X11674943Y-15015174D02*
X11684467Y-15024698D01*
X11684467Y-15024698D02*
X11693991Y-15043746D01*
X11693991Y-15043746D02*
X11693991Y-15100888D01*
X11693991Y-15100888D02*
X11684467Y-15119936D01*
X11684467Y-15119936D02*
X11674943Y-15129460D01*
X11674943Y-15129460D02*
X11655896Y-15138984D01*
X11655896Y-15138984D02*
X11617801Y-15138984D01*
X11617801Y-15138984D02*
X11598753Y-15129460D01*
X11779705Y-15119936D02*
X11789229Y-15129460D01*
X11789229Y-15129460D02*
X11779705Y-15138984D01*
X11779705Y-15138984D02*
X11770182Y-15129460D01*
X11770182Y-15129460D02*
X11779705Y-15119936D01*
X11779705Y-15119936D02*
X11779705Y-15138984D01*
X11779705Y-15015174D02*
X11789229Y-15024698D01*
X11789229Y-15024698D02*
X11779705Y-15034222D01*
X11779705Y-15034222D02*
X11770182Y-15024698D01*
X11770182Y-15024698D02*
X11779705Y-15015174D01*
X11779705Y-15015174D02*
X11779705Y-15034222D01*
M02*
