%TF.GenerationSoftware,KiCad,Pcbnew,8.0.2*%
%TF.CreationDate,2024-11-11T15:41:09-05:00*%
%TF.ProjectId,PTZ_Camera_Controler,50545a5f-4361-46d6-9572-615f436f6e74,rev?*%
%TF.SameCoordinates,Original*%
%TF.FileFunction,Plated,1,2,PTH,Mixed*%
%TF.FilePolarity,Positive*%
%FSLAX46Y46*%
G04 Gerber Fmt 4.6, Leading zero omitted, Abs format (unit mm)*
G04 Created by KiCad (PCBNEW 8.0.2) date 2024-11-11 15:41:09*
%MOMM*%
%LPD*%
G01*
G04 APERTURE LIST*
%TA.AperFunction,ViaDrill*%
%ADD10C,0.300000*%
%TD*%
%TA.AperFunction,ComponentDrill*%
%ADD11C,0.889000*%
%TD*%
%TA.AperFunction,ComponentDrill*%
%ADD12C,0.900000*%
%TD*%
%TA.AperFunction,ComponentDrill*%
%ADD13C,1.000000*%
%TD*%
%TA.AperFunction,ComponentDrill*%
%ADD14C,1.040000*%
%TD*%
%TA.AperFunction,ComponentDrill*%
%ADD15C,1.397000*%
%TD*%
G04 aperture for slot hole*
%TA.AperFunction,ComponentDrill*%
%ADD16C,1.500000*%
%TD*%
G04 APERTURE END LIST*
D10*
X115094300Y-76866300D03*
X122454200Y-69011300D03*
X126537500Y-88537100D03*
X127129700Y-117714100D03*
X129570300Y-88537100D03*
X130933300Y-96382700D03*
X131538700Y-69801900D03*
X132061800Y-70800400D03*
X135344000Y-77379000D03*
X135529600Y-119004500D03*
X136844200Y-82260100D03*
X136957600Y-120725500D03*
X137863900Y-82709100D03*
X138326000Y-117980800D03*
X138514200Y-105040700D03*
X138787900Y-102047200D03*
X138992300Y-84617500D03*
X140289900Y-85704500D03*
X140477500Y-109076800D03*
X141973900Y-101033400D03*
X147305400Y-91187800D03*
X155884700Y-76655800D03*
X157817500Y-115895500D03*
X160262500Y-117947000D03*
X161182200Y-65720800D03*
X162496100Y-99939700D03*
X164970100Y-115482600D03*
X167819500Y-88955400D03*
X169966000Y-90970700D03*
X170647300Y-64053200D03*
X171062900Y-116871400D03*
X175801400Y-66249600D03*
X179042600Y-65975300D03*
D11*
%TO.C,JOY-STICK1*%
X113000000Y-144675000D03*
X115540000Y-144675000D03*
X118080000Y-144675000D03*
X124000000Y-133095000D03*
X124000000Y-135675000D03*
X124000000Y-138175000D03*
%TO.C,JOY-STICK2*%
X183500000Y-144500000D03*
X186040000Y-144500000D03*
X188580000Y-144500000D03*
X194500000Y-132920000D03*
X194500000Y-135500000D03*
X194500000Y-138000000D03*
D12*
%TO.C,JOY-STICK1*%
X105000000Y-132500000D03*
X105000000Y-138850000D03*
X109500000Y-132500000D03*
X109500000Y-138850000D03*
%TO.C,JOY-STICK2*%
X175500000Y-132325000D03*
X175500000Y-138675000D03*
X180000000Y-132325000D03*
X180000000Y-138675000D03*
D13*
%TO.C,ENCODER1*%
X108500000Y-53500000D03*
X108500000Y-68000000D03*
X111000000Y-68000000D03*
X113500000Y-53500000D03*
X113500000Y-68000000D03*
%TO.C,ENCODER2*%
X148500000Y-53500000D03*
X148500000Y-68000000D03*
X151000000Y-68000000D03*
X153500000Y-53500000D03*
X153500000Y-68000000D03*
%TO.C,ETHERNET-SHEILD1*%
X173040000Y-101625000D03*
X173040000Y-104165000D03*
X173040000Y-106705000D03*
X173040000Y-109245000D03*
X173040000Y-111785000D03*
X173040000Y-114325000D03*
%TO.C,ENCODER3*%
X188500000Y-53500000D03*
X188500000Y-68000000D03*
X191000000Y-68000000D03*
%TO.C,ETHERNET-SHEILD1*%
X193360000Y-101625000D03*
X193360000Y-104225000D03*
X193360000Y-106825000D03*
X193360000Y-109425000D03*
X193360000Y-112025000D03*
X193360000Y-114625000D03*
%TO.C,ENCODER3*%
X193500000Y-53500000D03*
X193500000Y-68000000D03*
D14*
%TO.C,ESP32*%
X132500000Y-82690000D03*
X132500000Y-85230000D03*
X132500000Y-87770000D03*
X132500000Y-90310000D03*
X132500000Y-92850000D03*
X132500000Y-95390000D03*
X132500000Y-97930000D03*
X132500000Y-100470000D03*
X132500000Y-103010000D03*
X132500000Y-105550000D03*
X132500000Y-108090000D03*
X132500000Y-110630000D03*
X132500000Y-113170000D03*
X132500000Y-115710000D03*
X132500000Y-118250000D03*
X132500000Y-120790000D03*
X132500000Y-123330000D03*
X132500000Y-125870000D03*
X132500000Y-128410000D03*
X155360000Y-82690000D03*
X155360000Y-85230000D03*
X155360000Y-87770000D03*
X155360000Y-90310000D03*
X155360000Y-92850000D03*
X155360000Y-95390000D03*
X155360000Y-97930000D03*
X155360000Y-100470000D03*
X155360000Y-103010000D03*
X155360000Y-105550000D03*
X155360000Y-108090000D03*
X155360000Y-110630000D03*
X155360000Y-113170000D03*
X155360000Y-115710000D03*
X155360000Y-118250000D03*
X155360000Y-120790000D03*
X155360000Y-123330000D03*
X155360000Y-125870000D03*
X155360000Y-128410000D03*
D15*
%TO.C,JOY-STICK1*%
X110500000Y-129175000D03*
X110500000Y-142175000D03*
X120500000Y-129175000D03*
X120500000Y-142175000D03*
%TO.C,JOY-STICK2*%
X181000000Y-129000000D03*
X181000000Y-142000000D03*
X191000000Y-129000000D03*
X191000000Y-142000000D03*
D16*
%TO.C,ENCODER1*%
X105400000Y-59850000D02*
X105400000Y-61150000D01*
X116600000Y-59850000D02*
X116600000Y-61150000D01*
%TO.C,ENCODER2*%
X145400000Y-59850000D02*
X145400000Y-61150000D01*
X156600000Y-59850000D02*
X156600000Y-61150000D01*
%TO.C,ENCODER3*%
X185400000Y-59850000D02*
X185400000Y-61150000D01*
X196600000Y-59850000D02*
X196600000Y-61150000D01*
M02*
