%TF.GenerationSoftware,KiCad,Pcbnew,8.0.2*%
%TF.CreationDate,2024-11-11T15:41:05-05:00*%
%TF.ProjectId,PTZ_Camera_Controler,50545a5f-4361-46d6-9572-615f436f6e74,rev?*%
%TF.SameCoordinates,Original*%
%TF.FileFunction,Profile,NP*%
%FSLAX46Y46*%
G04 Gerber Fmt 4.6, Leading zero omitted, Abs format (unit mm)*
G04 Created by KiCad (PCBNEW 8.0.2) date 2024-11-11 15:41:05*
%MOMM*%
%LPD*%
G01*
G04 APERTURE LIST*
%TA.AperFunction,Profile*%
%ADD10C,0.050000*%
%TD*%
G04 APERTURE END LIST*
D10*
X169800000Y-52250000D02*
G75*
G02*
X167200000Y-52250000I-1300000J0D01*
G01*
X167200000Y-52250000D02*
G75*
G02*
X169800000Y-52250000I1300000J0D01*
G01*
X169800000Y-73750000D02*
G75*
G02*
X167200000Y-73750000I-1300000J0D01*
G01*
X167200000Y-73750000D02*
G75*
G02*
X169800000Y-73750000I1300000J0D01*
G01*
X198300000Y-73750000D02*
G75*
G02*
X195700000Y-73750000I-1300000J0D01*
G01*
X195700000Y-73750000D02*
G75*
G02*
X198300000Y-73750000I1300000J0D01*
G01*
X198300000Y-96250000D02*
G75*
G02*
X195700000Y-96250000I-1300000J0D01*
G01*
X195700000Y-96250000D02*
G75*
G02*
X198300000Y-96250000I1300000J0D01*
G01*
X106300000Y-118750000D02*
G75*
G02*
X103700000Y-118750000I-1300000J0D01*
G01*
X103700000Y-118750000D02*
G75*
G02*
X106300000Y-118750000I1300000J0D01*
G01*
X198300000Y-118750000D02*
G75*
G02*
X195700000Y-118750000I-1300000J0D01*
G01*
X195700000Y-118750000D02*
G75*
G02*
X198300000Y-118750000I1300000J0D01*
G01*
X134800000Y-52250000D02*
G75*
G02*
X132200000Y-52250000I-1300000J0D01*
G01*
X132200000Y-52250000D02*
G75*
G02*
X134800000Y-52250000I1300000J0D01*
G01*
X106300000Y-73750000D02*
G75*
G02*
X103700000Y-73750000I-1300000J0D01*
G01*
X103700000Y-73750000D02*
G75*
G02*
X106300000Y-73750000I1300000J0D01*
G01*
X101500000Y-49250000D02*
X200500000Y-49250000D01*
X200500000Y-148250000D01*
X101500000Y-148250000D01*
X101500000Y-49250000D01*
X134800000Y-145750000D02*
G75*
G02*
X132200000Y-145750000I-1300000J0D01*
G01*
X132200000Y-145750000D02*
G75*
G02*
X134800000Y-145750000I1300000J0D01*
G01*
X134800000Y-73750000D02*
G75*
G02*
X132200000Y-73750000I-1300000J0D01*
G01*
X132200000Y-73750000D02*
G75*
G02*
X134800000Y-73750000I1300000J0D01*
G01*
X169800000Y-145750000D02*
G75*
G02*
X167200000Y-145750000I-1300000J0D01*
G01*
X167200000Y-145750000D02*
G75*
G02*
X169800000Y-145750000I1300000J0D01*
G01*
X106300000Y-96250000D02*
G75*
G02*
X103700000Y-96250000I-1300000J0D01*
G01*
X103700000Y-96250000D02*
G75*
G02*
X106300000Y-96250000I1300000J0D01*
G01*
M02*
