%TF.GenerationSoftware,KiCad,Pcbnew,8.0.2*%
%TF.CreationDate,2024-11-11T15:41:05-05:00*%
%TF.ProjectId,PTZ_Camera_Controler,50545a5f-4361-46d6-9572-615f436f6e74,rev?*%
%TF.SameCoordinates,Original*%
%TF.FileFunction,Soldermask,Top*%
%TF.FilePolarity,Negative*%
%FSLAX46Y46*%
G04 Gerber Fmt 4.6, Leading zero omitted, Abs format (unit mm)*
G04 Created by KiCad (PCBNEW 8.0.2) date 2024-11-11 15:41:05*
%MOMM*%
%LPD*%
G01*
G04 APERTURE LIST*
G04 Aperture macros list*
%AMRoundRect*
0 Rectangle with rounded corners*
0 $1 Rounding radius*
0 $2 $3 $4 $5 $6 $7 $8 $9 X,Y pos of 4 corners*
0 Add a 4 corners polygon primitive as box body*
4,1,4,$2,$3,$4,$5,$6,$7,$8,$9,$2,$3,0*
0 Add four circle primitives for the rounded corners*
1,1,$1+$1,$2,$3*
1,1,$1+$1,$4,$5*
1,1,$1+$1,$6,$7*
1,1,$1+$1,$8,$9*
0 Add four rect primitives between the rounded corners*
20,1,$1+$1,$2,$3,$4,$5,0*
20,1,$1+$1,$4,$5,$6,$7,0*
20,1,$1+$1,$6,$7,$8,$9,0*
20,1,$1+$1,$8,$9,$2,$3,0*%
G04 Aperture macros list end*
%ADD10RoundRect,0.381000X0.381000X-0.762000X0.381000X0.762000X-0.381000X0.762000X-0.381000X-0.762000X0*%
%ADD11R,1.500000X1.000000*%
%ADD12R,2.000000X2.000000*%
%ADD13C,2.000000*%
%ADD14R,2.000000X3.200000*%
%ADD15C,1.982000*%
%ADD16C,2.490000*%
%ADD17RoundRect,0.102000X1.000000X1.000000X-1.000000X1.000000X-1.000000X-1.000000X1.000000X-1.000000X0*%
%ADD18C,2.204000*%
%ADD19C,1.764000*%
G04 APERTURE END LIST*
D10*
%TO.C,BUTTON3*%
X159816700Y-115450000D03*
X159816700Y-109050000D03*
X163516700Y-115450000D03*
X163516700Y-109050000D03*
%TD*%
D11*
%TO.C,LED7*%
X185450000Y-103100000D03*
X185450000Y-99900000D03*
X180550000Y-99900000D03*
X180550000Y-103100000D03*
%TD*%
%TO.C,LED6*%
X163950000Y-103100000D03*
X163950000Y-99900000D03*
X159050000Y-99900000D03*
X159050000Y-103100000D03*
%TD*%
D12*
%TO.C,ENCODER3*%
X188500000Y-68000000D03*
D13*
X193500000Y-68000000D03*
X191000000Y-68000000D03*
D14*
X185400000Y-60500000D03*
X196600000Y-60500000D03*
D13*
X193500000Y-53500000D03*
X188500000Y-53500000D03*
%TD*%
D10*
%TO.C,BUTTON6*%
X138483300Y-93950000D03*
X138483300Y-87550000D03*
X142183300Y-93950000D03*
X142183300Y-87550000D03*
%TD*%
D12*
%TO.C,ENCODER2*%
X148500000Y-68000000D03*
D13*
X153500000Y-68000000D03*
X151000000Y-68000000D03*
D14*
X145400000Y-60500000D03*
X156600000Y-60500000D03*
D13*
X153500000Y-53500000D03*
X148500000Y-53500000D03*
%TD*%
D10*
%TO.C,BUTTON7*%
X159816700Y-93950000D03*
X159816700Y-87550000D03*
X163516700Y-93950000D03*
X163516700Y-87550000D03*
%TD*%
%TO.C,BUTTON4*%
X181150000Y-115450000D03*
X181150000Y-109050000D03*
X184850000Y-115450000D03*
X184850000Y-109050000D03*
%TD*%
D11*
%TO.C,LED3*%
X193450000Y-76350000D03*
X193450000Y-73150000D03*
X188550000Y-73150000D03*
X188550000Y-76350000D03*
%TD*%
%TO.C,LED2*%
X153450000Y-76350000D03*
X153450000Y-73150000D03*
X148550000Y-73150000D03*
X148550000Y-76350000D03*
%TD*%
D15*
%TO.C,JOY-STICK2*%
X175500000Y-138675000D03*
X175500000Y-132325000D03*
X180000000Y-138675000D03*
X180000000Y-132325000D03*
X194500000Y-138000000D03*
X194500000Y-135500000D03*
X194500000Y-132920000D03*
D16*
X181000000Y-142000000D03*
X191000000Y-142000000D03*
X191000000Y-129000000D03*
X181000000Y-129000000D03*
D15*
X183500000Y-144500000D03*
X186040000Y-144500000D03*
X188580000Y-144500000D03*
%TD*%
D12*
%TO.C,ENCODER1*%
X108500000Y-68000000D03*
D13*
X113500000Y-68000000D03*
X111000000Y-68000000D03*
D14*
X105400000Y-60500000D03*
X116600000Y-60500000D03*
D13*
X113500000Y-53500000D03*
X108500000Y-53500000D03*
%TD*%
D15*
%TO.C,JOY-STICK1*%
X105000000Y-138850000D03*
X105000000Y-132500000D03*
X109500000Y-138850000D03*
X109500000Y-132500000D03*
X124000000Y-138175000D03*
X124000000Y-135675000D03*
X124000000Y-133095000D03*
D16*
X110500000Y-142175000D03*
X120500000Y-142175000D03*
X120500000Y-129175000D03*
X110500000Y-129175000D03*
D15*
X113000000Y-144675000D03*
X115540000Y-144675000D03*
X118080000Y-144675000D03*
%TD*%
D10*
%TO.C,BUTTON1*%
X117150000Y-115450000D03*
X117150000Y-109050000D03*
X120850000Y-115450000D03*
X120850000Y-109050000D03*
%TD*%
%TO.C,BUTTON5*%
X117150000Y-93950000D03*
X117150000Y-87550000D03*
X120850000Y-93950000D03*
X120850000Y-87550000D03*
%TD*%
D11*
%TO.C,LED1*%
X113450000Y-76350000D03*
X113450000Y-73150000D03*
X108550000Y-73150000D03*
X108550000Y-76350000D03*
%TD*%
%TO.C,LED4*%
X121450000Y-103100000D03*
X121450000Y-99900000D03*
X116550000Y-99900000D03*
X116550000Y-103100000D03*
%TD*%
D10*
%TO.C,BUTTON8*%
X181150000Y-93950000D03*
X181150000Y-87550000D03*
X184850000Y-93950000D03*
X184850000Y-87550000D03*
%TD*%
%TO.C,BUTTON2*%
X138483300Y-115450000D03*
X138483300Y-109050000D03*
X142183300Y-115450000D03*
X142183300Y-109050000D03*
%TD*%
D11*
%TO.C,LED5*%
X142450000Y-103100000D03*
X142450000Y-99900000D03*
X137550000Y-99900000D03*
X137550000Y-103100000D03*
%TD*%
D17*
%TO.C,ESP32*%
X155360000Y-82690000D03*
D18*
X155360000Y-85230000D03*
X155360000Y-87770000D03*
X155360000Y-90310000D03*
X155360000Y-92850000D03*
X155360000Y-95390000D03*
X155360000Y-97930000D03*
X155360000Y-100470000D03*
X155360000Y-103010000D03*
X155360000Y-105550000D03*
X155360000Y-108090000D03*
X155360000Y-110630000D03*
X155360000Y-113170000D03*
X155360000Y-115710000D03*
X155360000Y-118250000D03*
X155360000Y-120790000D03*
X155360000Y-123330000D03*
X155360000Y-125870000D03*
X155360000Y-128410000D03*
X132500000Y-82690000D03*
X132500000Y-85230000D03*
X132500000Y-87770000D03*
X132500000Y-90310000D03*
X132500000Y-92850000D03*
X132500000Y-95390000D03*
X132500000Y-97930000D03*
X132500000Y-100470000D03*
X132500000Y-103010000D03*
X132500000Y-105550000D03*
X132500000Y-108090000D03*
X132500000Y-110630000D03*
X132500000Y-113170000D03*
X132500000Y-115710000D03*
X132500000Y-118250000D03*
X132500000Y-120790000D03*
D19*
X132500000Y-123330000D03*
D18*
X132500000Y-125870000D03*
X132500000Y-128410000D03*
%TD*%
D13*
%TO.C,ETHERNET-SHEILD1*%
X193360000Y-101625000D03*
X193360000Y-104225000D03*
X193360000Y-106825000D03*
X193360000Y-109425000D03*
X193360000Y-112025000D03*
X193360000Y-114625000D03*
X173040000Y-101625000D03*
X173040000Y-104165000D03*
X173040000Y-106705000D03*
X173040000Y-109245000D03*
X173040000Y-111785000D03*
X173040000Y-114325000D03*
%TD*%
M02*
